<?xml version="1.0" encoding="UTF-8"?>
<!DOCTYPE svg PUBLIC "-//W3C//DTD SVG 1.1//EN" "http://www.w3.org/Graphics/SVG/1.1/DTD/svg11.dtd">
<!-- Creator: CorelDRAW X6 -->
<svg xmlns="http://www.w3.org/2000/svg" xml:space="preserve" width="180mm" height="180mm" version="1.1" style="shape-rendering:geometricPrecision; text-rendering:geometricPrecision; image-rendering:optimizeQuality; fill-rule:evenodd; clip-rule:evenodd"
viewBox="0 0 18000 18000"
 xmlns:xlink="http://www.w3.org/1999/xlink">
 <defs>
  <style type="text/css">
   <![CDATA[
    .fil0 {fill:#CFCFCF}
   ]]>
  </style>
 </defs>
 <g id="Layer_x0020_1">
  <metadata id="CorelCorpID_0Corel-Layer"/>
  <path class="fil0" d="M13449 2836c-1165,88 -2365,261 -3536,373 -2366,226 -4712,508 -7086,747 -2250,227 -2089,-27 -1706,1775l854 4049c46,236 76,609 252,737 254,185 1457,98 1869,98l5892 0c617,-1 1371,-38 1972,8l-260 1350c-226,74 -4695,20 -5346,19 -894,-1 -1787,1 -2681,0 -376,0 -992,-91 -1208,139 -125,131 -276,685 466,682l8045 -1c282,1 1106,60 1282,-61 244,-168 271,-700 335,-1041l1481 -7902c83,-466 102,-713 342,-1034 185,-246 491,-366 891,-448 321,-66 278,-119 496,48 137,105 300,158 497,155 831,-12 1088,-1063 472,-1512 -377,-274 -953,-155 -1178,220 -180,299 -8,172 -691,330 -690,160 -1250,657 -1454,1269zm-3583 5933l-84 1001 2339 9 205 -1100 -2460 90zm111 -1609l-95 1200 2528 -99 241 -1312c-393,16 -2486,128 -2674,211zm99 -1631l-76 1193 2734 -192 237 -1306c-477,9 -996,100 -1468,141 -330,28 -1149,77 -1427,164zm128 -1523l-92 1080 2943 -291 202 -1107 -3053 318zm-3249 345l30 1060 2707 -271 84 -1077 -2821 288zm39 1472l43 1111c207,20 2448,-151 2521,-194l47 -279c16,-264 73,-673 55,-912l-2666 274zm70 1528l24 1122c349,-12 2222,-49 2389,-121l78 -1175 -2491 174zm53 1526l18 899 2248 2 59 -992 -2325 91zm-2453 97l84 789 1983 16 -33 -878 -2034 73zm-166 -1437c-36,192 73,801 104,1030l2056 -77c47,-265 -1,-825 -23,-1108l-2137 155zm-209 -1439l128 1030 2204 -152 -29 -1101 -2303 223zm-189 -1447l135 1037 2323 -228 -11 -1048 -2447 239zm-2261 239l-18 58c-18,151 190,1002 225,1165 228,1056 610,2709 767,3665l1527 0 -642 -5075 -1859 187zm9352 8723c-965,189 -1620,1024 -1458,2022 145,898 974,1661 2081,1471 852,-147 1602,-997 1427,-2044 -146,-867 -981,-1658 -2050,-1449zm-7925 3c-874,172 -1635,977 -1434,2057 164,883 1005,1636 2109,1425 822,-157 1587,-1008 1388,-2061 -161,-853 -989,-1631 -2063,-1421z"/>
 </g>
</svg>
